HIERARCHY
ROOT Hips
{
	OFFSET -3.958830 18.904000 13.208200
	CHANNELS 6 Xposition Yposition Zposition Zrotation Yrotation Xrotation 
	JOINT LHipJoint
	{
		OFFSET 0.000000 0.000000 0.000000
		CHANNELS 3 Zrotation Yrotation Xrotation
		JOINT LeftUpLeg
		{
			OFFSET 1.800000 -1.400000 0.085000
			CHANNELS 3 Zrotation Yrotation Xrotation
			JOINT LeftLeg
			{
				OFFSET 2.215000 -6.000000 0.000000
				CHANNELS 3 Zrotation Yrotation Xrotation
				JOINT LeftFoot
				{
					OFFSET 2.500000 -6.900000 0.000000
					CHANNELS 3 Zrotation Yrotation Xrotation
					JOINT LeftToeBase
					{
						OFFSET 0.200000 -0.500000 1.950000
						CHANNELS 3 Zrotation Yrotation Xrotation
						End Site
						{
							OFFSET 0.000000 0.000000 0.000000
						}
					}
				}
			}
		}
	}
	JOINT RHipJoint
	{
		OFFSET 0.000000 0.000000 0.000000
		CHANNELS 3 Zrotation Yrotation Xrotation
		JOINT RightUpLeg
		{
			OFFSET -1.800000 -1.400000 0.085000
			CHANNELS 3 Zrotation Yrotation Xrotation
			JOINT RightLeg
			{
				OFFSET -2.215000 -6.000000 0.000000
				CHANNELS 3 Zrotation Yrotation Xrotation
				JOINT RightFoot
				{
					OFFSET -2.500000 -6.900000 0.000000
					CHANNELS 3 Zrotation Yrotation Xrotation
					JOINT RightToeBase
					{
						OFFSET -0.200000 -0.500000 1.950000
						CHANNELS 3 Zrotation Yrotation Xrotation
						End Site
						{
							OFFSET 0.000000 0.000000 0.000000
						}
					}
				}
			}
		}
	}
	JOINT LowerBack
	{
		OFFSET 0.000000 0.000000 0.000000
		CHANNELS 3 Zrotation Yrotation Xrotation
		JOINT Spine
		{
			OFFSET -0.087000 1.940000 -0.288900
			CHANNELS 3 Zrotation Yrotation Xrotation
			JOINT Spine1
			{
				OFFSET 0.000000 1.950000 0.060000
				CHANNELS 3 Zrotation Yrotation Xrotation
				JOINT Neck
				{
					OFFSET 0.000000 0.000000 0.000000
					CHANNELS 3 Zrotation Yrotation Xrotation
					JOINT Neck1
					{
						OFFSET 0.000000 1.600000 0.340000
						CHANNELS 3 Zrotation Yrotation Xrotation
						JOINT Head
						{
							OFFSET 0.000000 1.667000 -0.240000
							CHANNELS 3 Zrotation Yrotation Xrotation
							End Site
							{
								OFFSET 0.000000 0.000000 0.000000
							}
						}
					}
				}
				JOINT LeftShoulder
				{
					OFFSET 0.000000 0.000000 0.000000
					CHANNELS 3 Zrotation Yrotation Xrotation
					JOINT LeftArm
					{
						OFFSET 2.700000 1.550000 -0.730000
						CHANNELS 3 Zrotation Yrotation Xrotation
						JOINT LeftForeArm
						{
							OFFSET 5.450000 0.000000 0.000000
							CHANNELS 3 Zrotation Yrotation Xrotation
							JOINT LeftHand
							{
								OFFSET 3.450000 0.000000 0.000000
								CHANNELS 3 Zrotation Yrotation Xrotation
								JOINT LeftHandIndex1
								{
									OFFSET 0.750000 0.000000 0.000000
									CHANNELS 3 Zrotation Yrotation Xrotation
									End Site
									{
										OFFSET 0.000000 0.000000 0.000000
									}
								}
							}
						}
					}
				}
				JOINT RightShoulder
				{
					OFFSET 0.000000 0.000000 0.000000
					CHANNELS 3 Zrotation Yrotation Xrotation
					JOINT RightArm
					{
						OFFSET -2.700000 1.550000 -0.730000
						CHANNELS 3 Zrotation Yrotation Xrotation
						JOINT RightForeArm
						{
							OFFSET -5.450000 0.000000 0.000000
							CHANNELS 3 Zrotation Yrotation Xrotation
							JOINT RightHand
							{
								OFFSET -3.450000 0.000000 0.000000
								CHANNELS 3 Zrotation Yrotation Xrotation
								JOINT RightHandIndex1
								{
									OFFSET -0.750000 0.000000 0.000000
									CHANNELS 3 Zrotation Yrotation Xrotation
									End Site
									{
										OFFSET 0.000000 0.000000 0.000000
									}
								}
							}
						}
					}
				}
			}
		}
	}
}
MOTION
Frames: 6
Frame Time: 0.016667
0.410510 17.435050 -5.763360 -10.983616 59.757714 -17.668216 -15.623676 12.668944 2.541626 -1.150194 -1.073807 -6.917562 5.510733 2.835121 21.486954 -1.107312 4.347798 3.191648 0.696100 0.296390 0.771100 17.573896 -12.295346 3.647060 -8.466752 4.497784 -26.932387 9.266896 -6.505787 20.306975 -0.197152 -3.785018 2.804878 0.480710 0.339560 0.514180 -6.987556 3.601225 -9.559719 23.715849 -2.715598 25.218151 -6.347829 1.527283 19.852467 15.355453 -5.120705 -11.655519 0.088036 13.797168 42.501241 -15.023620 18.941810 -14.726600 -0.231000 -51.082241 12.577298 -15.279252 -33.139764 -19.975960 -179.355083 40.475611 149.374646 -5.254168 3.579989 0.524060 0.504970 -0.057900 0.106260 -21.083120 47.689929 -13.144737 27.901968 59.886267 15.678534 -69.646791 61.630592 -40.148450 5.889107 -0.942807 -0.345770 0.203530 -0.024630 -0.471280 
0.478580 17.321700 -5.679960 -12.352371 59.916978 -16.565181 -15.658495 12.789374 2.519337 0.383557 -0.921566 -6.789010 3.674524 3.273015 19.422364 -1.143627 4.355898 3.223281 0.649660 0.242500 0.687640 17.542733 -12.037117 3.776269 -6.193979 4.289458 -25.879224 6.653347 -3.815136 8.592925 0.013536 -2.738115 3.250798 0.493270 0.462960 0.525530 -6.498665 3.063804 -9.283422 21.445391 -1.666808 20.592552 -5.723499 1.844751 20.017052 16.270975 -2.877038 -11.619929 3.066506 13.088268 40.570949 -14.362710 19.026240 -10.778480 -2.744877 -48.238590 13.268590 -11.958074 -28.743511 -23.077176 166.637729 24.299817 55.590000 -4.673718 4.315999 0.437250 0.611220 -0.165930 0.135230 -21.373833 44.783409 -13.302206 26.843708 58.248317 15.827640 -75.749051 58.936132 -42.368765 4.173192 -0.162705 -0.382820 0.215670 0.019240 -0.450170 
0.534970 17.236480 -5.602430 -12.463413 59.485554 -15.081423 -15.791221 12.726069 2.284354 1.357035 -0.731719 -5.874197 2.032114 3.873313 17.989594 -1.081191 4.595669 3.215754 0.478340 0.019280 0.634920 17.605702 -11.387938 3.688050 -4.857861 4.179456 -24.262382 4.437986 -2.307362 -0.114708 0.101506 -2.595756 3.435134 0.385730 0.571000 0.483350 -5.066484 2.020247 -8.007540 15.210575 -0.812887 15.367043 -1.784714 2.309057 22.468353 16.034023 1.155471 -10.335960 8.427912 13.014829 35.721515 -16.308280 21.315750 -7.510590 -4.703268 -43.988091 15.241217 -5.227876 -26.067117 -13.538971 165.433978 10.818092 -0.489568 -4.295965 3.923610 0.417670 0.705070 -0.268890 0.103900 -20.686843 42.454842 -10.942677 16.730609 59.734901 12.127579 -81.633061 54.815202 -40.113221 2.178995 -0.599153 -0.493000 0.249180 0.084780 -0.489180 
0.588390 17.150700 -5.528170 -11.264134 58.579896 -12.914733 -15.819292 12.570209 2.221752 1.307879 -0.366711 -4.730101 1.245938 4.124441 16.283725 -1.038708 4.676911 3.244947 0.310950 -0.191480 0.526690 17.658897 -11.132135 3.779793 -4.407420 4.382139 -24.120554 3.672710 -1.714258 -4.214944 0.163138 -2.716984 3.453573 0.277060 0.675730 0.474800 -4.475873 1.803873 -7.868519 11.228567 1.822089 14.561983 2.923443 3.675378 19.965291 14.406233 4.784545 -10.832051 13.652268 11.501084 32.466564 -16.435540 22.129830 -3.212880 -4.621362 -37.587279 17.516197 -4.631412 -24.506450 2.440275 159.989743 -8.671642 -60.909452 -4.536876 3.089651 0.361430 0.799470 -0.384740 0.077460 -18.491172 35.740529 -11.269806 21.875848 60.426282 21.202350 -78.666986 50.912710 -38.957550 1.866719 -0.604593 -0.555080 0.226370 0.165870 -0.499510 
0.646200 17.075400 -5.449190 -9.072369 58.060599 -9.908513 -15.770725 12.434495 2.268872 0.083830 -0.103976 -4.558194 0.951720 4.221117 15.779134 -1.041685 4.671863 3.270476 0.225880 -0.325630 0.500490 17.723270 -11.036042 3.900866 -5.003036 4.524589 -24.710108 4.035020 -1.456587 -6.057235 0.186574 -2.799430 3.420895 0.208770 0.697250 0.461090 -4.314549 1.749038 -8.101723 9.066943 3.966693 13.913559 5.465059 4.608208 16.088527 11.793244 6.829514 -11.455299 17.227535 8.417248 33.817086 -16.659930 21.014870 -0.267030 -2.914852 -32.410420 15.455512 -4.661558 -24.843844 9.739468 154.118378 -30.527873 -100.421737 -4.707863 2.873929 0.344080 0.823980 -0.444590 0.048110 -16.071782 29.921621 -9.995952 29.527264 59.673867 32.247425 -71.744794 46.009026 -36.178832 1.560532 -0.172035 -0.590340 0.197780 0.200190 -0.519120 
0.705610 17.025660 -5.371480 -6.242851 56.951313 -7.280331 -15.786553 13.422917 2.692788 -1.711223 0.162823 -5.372105 1.904691 4.295478 17.040709 -1.015779 4.873722 3.192004 0.270140 -0.276440 0.504740 17.635565 -10.294426 3.892752 -6.040048 4.559084 -24.851027 4.968284 -1.363030 -4.863905 0.264130 -2.581020 3.481854 0.260330 0.711030 0.445190 -3.204626 -1.579906 -8.412315 5.501023 0.903180 16.111627 3.029194 -0.172567 21.878961 6.983926 7.596824 -18.259106 15.106072 7.597021 36.531878 -14.873750 18.857340 -0.046490 -0.154539 -13.991827 3.076257 -4.124146 -26.736576 12.103312 156.958587 -43.293393 -126.126711 -4.648042 3.127494 0.348470 0.817220 -0.455850 0.069520 -13.762966 11.984163 18.899874 -100.328946 69.428723 -116.754196 -46.198572 55.766302 -29.041456 3.962524 0.395241 -0.603730 0.235830 0.190280 -0.512920 
